<svg width="40" height="24" viewBox="0 0 40 24" fill="none" xmlns="http://www.w3.org/2000/svg">
<rect x="0.5" y="0.5" width="39" height="23" rx="11.5" fill="#33363A" fill-opacity="0.16" stroke="#33363A"/>
<path opacity="0.64" fill-rule="evenodd" clip-rule="evenodd" d="M25.8663 6.14608C25.7517 6.03174 25.5889 5.97995 25.4293 6.00708C25.1683 6.05108 19.0363 7.10708 17.2293 8.92008C15.8872 10.2663 15.6329 12.3529 16.6123 13.9821L14.3053 16.2931C14.0454 16.5442 13.9411 16.916 14.0326 17.2656C14.1241 17.6152 14.3972 17.8883 14.7468 17.9798C15.0964 18.0713 15.4682 17.967 15.7193 17.7071L21.4263 12.0001L19.4263 15.9231C19.6678 15.9712 19.9131 15.997 20.1593 16.0001C21.26 16.0029 22.3161 15.5654 23.0923 14.7851C24.9023 12.9761 25.9613 6.84408 26.0053 6.58508C26.0331 6.42485 25.9813 6.2611 25.8663 6.14608Z" fill="#9CA9B3"/>
</svg>
