<svg width="32" height="28" viewBox="0 0 32 28" fill="none" xmlns="http://www.w3.org/2000/svg">
<g filter="url(#filter0_d_1_225)">
<circle cx="16" cy="14" r="14" fill="url(#paint0_linear_1_225)"/>
</g>
<path d="M13.783 8.0878C13.63 7.98276 13.4314 7.9711 13.2672 8.05752C13.1029 8.14394 13.0001 8.31421 13 8.4998V19.4998C13.0003 19.6855 13.1035 19.8556 13.268 19.9418C13.3394 19.98 13.4191 19.9999 13.5 19.9998C13.6011 19.9997 13.6997 19.9691 13.783 19.9118L21.783 14.4118C21.9187 14.3185 21.9997 14.1644 21.9997 13.9998C21.9997 13.8352 21.9187 13.6811 21.783 13.5878L13.783 8.0878Z" fill="#F6AE55"/>
<defs>
<filter id="filter0_d_1_225" x="0" y="-2" width="32" height="32" filterUnits="userSpaceOnUse" color-interpolation-filters="sRGB">
<feFlood flood-opacity="0" result="BackgroundImageFix"/>
<feColorMatrix in="SourceAlpha" type="matrix" values="0 0 0 0 0 0 0 0 0 0 0 0 0 0 0 0 0 0 127 0" result="hardAlpha"/>
<feOffset/>
<feGaussianBlur stdDeviation="1"/>
<feColorMatrix type="matrix" values="0 0 0 0 0.0823529 0 0 0 0 0.0901961 0 0 0 0 0.0980392 0 0 0 0.04 0"/>
<feBlend mode="normal" in2="BackgroundImageFix" result="effect1_dropShadow_1_225"/>
<feBlend mode="normal" in="SourceGraphic" in2="effect1_dropShadow_1_225" result="shape"/>
</filter>
<linearGradient id="paint0_linear_1_225" x1="29.65" y1="27.9446" x2="29.65" y2="0.644627" gradientUnits="userSpaceOnUse">
<stop stop-color="#55595F" stop-opacity="0.36"/>
<stop offset="1" stop-color="#55595F" stop-opacity="0.36"/>
</linearGradient>
</defs>
</svg>
