<svg width="32" height="28" viewBox="0 0 32 28" fill="none" xmlns="http://www.w3.org/2000/svg">
<g filter="url(#filter0_d_1_243)">
<circle cx="16" cy="14" r="14" fill="url(#paint0_linear_1_243)"/>
</g>
<path d="M19.724 8.05299C19.5545 7.96807 19.3516 7.98627 19.2 8.09999L15.333 11H12.5C11.6716 11 11 11.6716 11 12.5V15.5C11 16.3284 11.6716 17 12.5 17H15.333L19.2 19.9C19.2865 19.9649 19.3918 20 19.5 20C19.5777 19.9997 19.6544 19.9816 19.724 19.947C19.8932 19.8622 20 19.6892 20 19.5V8.49999C20 8.31077 19.8932 8.13776 19.724 8.05299Z" fill="#4299E1"/>
<defs>
<filter id="filter0_d_1_243" x="0" y="-2" width="32" height="32" filterUnits="userSpaceOnUse" color-interpolation-filters="sRGB">
<feFlood flood-opacity="0" result="BackgroundImageFix"/>
<feColorMatrix in="SourceAlpha" type="matrix" values="0 0 0 0 0 0 0 0 0 0 0 0 0 0 0 0 0 0 127 0" result="hardAlpha"/>
<feOffset/>
<feGaussianBlur stdDeviation="1"/>
<feColorMatrix type="matrix" values="0 0 0 0 0.0823529 0 0 0 0 0.0901961 0 0 0 0 0.0980392 0 0 0 0.04 0"/>
<feBlend mode="normal" in2="BackgroundImageFix" result="effect1_dropShadow_1_243"/>
<feBlend mode="normal" in="SourceGraphic" in2="effect1_dropShadow_1_243" result="shape"/>
</filter>
<linearGradient id="paint0_linear_1_243" x1="29.65" y1="27.9446" x2="29.65" y2="0.644627" gradientUnits="userSpaceOnUse">
<stop stop-color="#55595F" stop-opacity="0.36"/>
<stop offset="1" stop-color="#55595F" stop-opacity="0.36"/>
</linearGradient>
</defs>
</svg>
