<svg width="32" height="28" viewBox="0 0 32 28" fill="none" xmlns="http://www.w3.org/2000/svg">
<g filter="url(#filter0_d_1_198)">
<circle cx="16" cy="14" r="14" fill="url(#paint0_linear_1_198)"/>
</g>
<path d="M21.953 12.2892C21.8715 12.1119 21.6942 11.9983 21.499 11.9982H16.14L16.984 8.61922C17.0391 8.39474 16.9332 8.16175 16.7278 8.05573C16.5224 7.9497 16.2711 7.99828 16.12 8.17322L10.12 15.1732C9.99329 15.3214 9.96426 15.5298 10.0457 15.7069C10.1271 15.8841 10.304 15.9978 10.499 15.9982H15.858L15.014 19.3772C14.9581 19.6021 15.0641 19.836 15.27 19.9422C15.3407 19.9792 15.4193 19.9985 15.499 19.9982C15.6448 19.9979 15.7833 19.934 15.878 19.8232L21.878 12.8232C22.0051 12.6751 22.0344 12.4666 21.953 12.2892Z" fill="#F56565"/>
<defs>
<filter id="filter0_d_1_198" x="0" y="-2" width="32" height="32" filterUnits="userSpaceOnUse" color-interpolation-filters="sRGB">
<feFlood flood-opacity="0" result="BackgroundImageFix"/>
<feColorMatrix in="SourceAlpha" type="matrix" values="0 0 0 0 0 0 0 0 0 0 0 0 0 0 0 0 0 0 127 0" result="hardAlpha"/>
<feOffset/>
<feGaussianBlur stdDeviation="1"/>
<feColorMatrix type="matrix" values="0 0 0 0 0.0823529 0 0 0 0 0.0901961 0 0 0 0 0.0980392 0 0 0 0.04 0"/>
<feBlend mode="normal" in2="BackgroundImageFix" result="effect1_dropShadow_1_198"/>
<feBlend mode="normal" in="SourceGraphic" in2="effect1_dropShadow_1_198" result="shape"/>
</filter>
<linearGradient id="paint0_linear_1_198" x1="29.65" y1="27.9446" x2="29.65" y2="0.644627" gradientUnits="userSpaceOnUse">
<stop stop-color="#55595F" stop-opacity="0.36"/>
<stop offset="1" stop-color="#55595F" stop-opacity="0.36"/>
</linearGradient>
</defs>
</svg>
