<svg width="44" height="32" viewBox="0 0 44 32" fill="none" xmlns="http://www.w3.org/2000/svg">
<g filter="url(#filter0_d_1_267)">
<rect x="2" y="2" width="40" height="28" rx="2" fill="#36A269"/>
</g>
<path d="M27 15H23V11C23 10.4477 22.5523 10 22 10C21.4477 10 21 10.4477 21 11V15H17C16.4477 15 16 15.4477 16 16C16 16.5523 16.4477 17 17 17H21V21C21 21.5523 21.4477 22 22 22C22.5523 22 23 21.5523 23 21V17H27C27.5523 17 28 16.5523 28 16C28 15.4477 27.5523 15 27 15Z" fill="white"/>
<defs>
<filter id="filter0_d_1_267" x="0" y="0" width="44" height="32" filterUnits="userSpaceOnUse" color-interpolation-filters="sRGB">
<feFlood flood-opacity="0" result="BackgroundImageFix"/>
<feColorMatrix in="SourceAlpha" type="matrix" values="0 0 0 0 0 0 0 0 0 0 0 0 0 0 0 0 0 0 127 0" result="hardAlpha"/>
<feOffset/>
<feGaussianBlur stdDeviation="1"/>
<feColorMatrix type="matrix" values="0 0 0 0 0.0823529 0 0 0 0 0.0901961 0 0 0 0 0.0980392 0 0 0 0.04 0"/>
<feBlend mode="normal" in2="BackgroundImageFix" result="effect1_dropShadow_1_267"/>
<feBlend mode="normal" in="SourceGraphic" in2="effect1_dropShadow_1_267" result="shape"/>
</filter>
</defs>
</svg>
